<?xml version="1.0" standalone="no"?>
<!DOCTYPE svg PUBLIC "-//W3C//DTD SVG 20010904//EN"
 "http://www.w3.org/TR/2001/REC-SVG-20010904/DTD/svg10.dtd">
<svg version="1.0" xmlns="http://www.w3.org/2000/svg"
 width="392.000000pt" height="389.000000pt" viewBox="0 0 392.000000 389.000000"
 preserveAspectRatio="xMidYMid meet">

<g transform="translate(0.000000,389.000000) scale(0.100000,-0.100000)"
fill="#000000" stroke="none">
<path d="M1725 3681 c-231 -43 -422 -112 -596 -217 -77 -47 -93 -88 -51 -136
25 -30 69 -21 161 31 179 102 403 171 624 192 335 33 694 -61 989 -257 97 -65
312 -260 323 -293 3 -10 -4 -38 -15 -62 -54 -120 -2 -270 115 -332 57 -30 173
-30 231 0 86 46 134 127 134 227 0 155 -126 269 -280 253 l-57 -6 -68 75
c-230 256 -554 438 -915 515 -149 31 -451 37 -595 10z m1753 -755 c34 -32 37
-38 37 -91 0 -53 -3 -59 -37 -91 -32 -29 -45 -34 -87 -34 -119 0 -171 132 -86
217 29 29 40 33 84 33 44 0 56 -5 89 -34z"/>
<path d="M1890 3254 c-14 -2 -59 -9 -100 -15 -41 -6 -120 -26 -176 -44 -452
-148 -777 -542 -845 -1024 -14 -102 -7 -297 15 -399 53 -243 170 -459 346
-632 619 -613 1659 -411 2006 391 175 401 118 873 -146 1229 -178 239 -461
417 -754 476 -72 14 -301 26 -346 18z m217 -195 c247 -27 452 -126 629 -303
162 -163 256 -345 295 -570 19 -113 7 -343 -24 -446 -101 -337 -346 -598 -662
-707 -277 -95 -547 -78 -810 52 -273 134 -474 382 -552 680 -22 87 -26 120
-26 255 0 135 4 168 26 252 49 186 130 329 265 470 195 203 443 313 735 327
15 0 71 -4 124 -10z"/>
<path d="M1545 2673 c-51 -13 -80 -65 -64 -113 19 -54 45 -60 272 -60 159 0
214 -3 250 -16 74 -25 160 -111 182 -181 l6 -23 -330 0 -330 0 -27 -24 c-21
-18 -28 -32 -28 -61 0 -29 7 -43 28 -61 l27 -24 330 0 330 0 -7 -22 c-11 -37
-62 -105 -97 -132 -72 -55 -97 -60 -324 -66 -207 -5 -212 -6 -237 -29 -15 -14
-31 -41 -37 -61 -14 -47 6 -95 60 -142 20 -17 141 -128 270 -247 128 -119 243
-221 255 -228 35 -20 66 -15 97 16 31 31 36 63 16 96 -7 12 -106 108 -222 215
-115 107 -211 198 -213 202 -2 4 45 8 105 8 123 0 185 14 271 60 108 57 208
185 236 303 6 26 9 27 72 27 59 0 68 3 95 29 37 38 39 82 4 116 -21 22 -33 25
-94 25 l-70 0 -11 43 c-7 23 -27 70 -46 105 -19 34 -34 65 -34 67 0 3 45 5 99
5 143 0 180 19 181 91 0 26 -7 42 -26 60 l-26 24 -471 2 c-260 0 -481 -1 -492
-4z"/>
<path d="M495 3046 c-137 -63 -188 -236 -108 -365 l32 -51 -20 -57 c-138 -400
-123 -830 41 -1218 140 -329 405 -631 704 -799 48 -27 94 -46 112 -46 43 0 66
28 62 75 -3 36 -8 41 -93 92 -366 221 -614 543 -721 938 -70 258 -71 514 -4
782 41 163 43 166 112 169 102 6 183 62 223 157 19 46 19 144 0 190 -38 92
-136 157 -235 157 -37 0 -72 -8 -105 -24z m181 -122 c28 -19 54 -72 54 -112 0
-35 -36 -92 -70 -109 -89 -45 -198 27 -187 125 11 97 121 149 203 96z"/>
<path d="M3562 2143 l-29 -29 -6 -164 c-8 -233 -48 -400 -147 -605 -70 -144
-161 -275 -273 -392 -203 -210 -427 -345 -706 -424 -132 -37 -146 -37 -165 0
-42 80 -130 132 -226 132 -76 1 -136 -27 -188 -86 -45 -51 -62 -101 -62 -176
0 -67 25 -122 76 -171 52 -49 100 -68 177 -68 107 0 191 55 231 152 14 34 19
36 83 48 37 7 124 31 192 53 691 224 1161 873 1161 1601 0 114 -10 139 -62
152 -22 5 -33 0 -56 -23z m-1495 -1620 c68 -32 93 -115 53 -180 -22 -37 -67
-63 -107 -63 -64 0 -133 67 -133 128 0 39 37 98 72 115 42 21 71 21 115 0z"/>
</g>
</svg>
